PathFileType	4	(X/Y/Z)	C:\Users\dbl\Desktop\20210112(1)\20210112\bx_y_10_1801.trc
DataRate	CameraRate	NumFrames	NumMarkers	Units	OrigDataRate	OrigDataStartFrame	OrigNumFrames
50.00	50.00	       7	43	mm	50.00	410	       468
Frame#	Time	Top.Head			R.Acromium			L.Acromium			Sternum			R.ASIS			L.ASIS			V.Sacral			R.Thigh.Upper			R.Thigh.Front			R.Thigh.Rear			R.Knee.Lat			R.Knee.Med			R.Shank.Upper			R.Shank.Front			R.Shank.Rear			R.Ankle.Lat			R.Midfoot.Lat			R.Toe.Lat			R.Toe.Tip			R.Toe.Med			R.Ankle.Med			R.Midfoot.Sup			R.Heel			L.Thigh.Upper			L.Thigh.Front			L.Thigh.Rear			L.Knee.Lat			L.Knee.Med			L.Shank.Upper			L.Shank.Front			L.Shank.Rear			L.Ankle.Lat			L.Midfoot.Lat			L.Toe.Lat			L.Toe.Tip			L.Toe.Med			L.Ankle.Med			L.Midfoot.Sup			L.Heel			origin1 front left			origin2 front right			origin 3 back right			origin 4 back leftt			
		X1	Y1	Z1	X2	Y2	Z2	X3	Y3	Z3	X4	Y4	Z4	X5	Y5	Z5	X6	Y6	Z6	X7	Y7	Z7	X8	Y8	Z8	X9	Y9	Z9	X10	Y10	Z10	X11	Y11	Z11	X12	Y12	Z12	X13	Y13	Z13	X14	Y14	Z14	X15	Y15	Z15	X16	Y16	Z16	X17	Y17	Z17	X18	Y18	Z18	X19	Y19	Z19	X20	Y20	Z20	X21	Y21	Z21	X22	Y22	Z22	X23	Y23	Z23	X24	Y24	Z24	X25	Y25	Z25	X26	Y26	Z26	X27	Y27	Z27	X28	Y28	Z28	X29	Y29	Z29	X30	Y30	Z30	X31	Y31	Z31	X32	Y32	Z32	X33	Y33	Z33	X34	Y34	Z34	X35	Y35	Z35	X36	Y36	Z36	X37	Y37	Z37	X38	Y38	Z38	X39	Y39	Z39	X40	Y40	Z40	X41	Y41	Z41	X42	Y42	Z42	X43	Y43	Z43	

410	8.180	-720.44141	93.31767	1853.65002	-719.60303	-70.23781	1572.06799	-708.94781	275.81006	1542.44568	-617.44653	87.65817	1439.35547	-615.04547	-33.53858	1058.46021	-586.68945	195.19141	1073.30640	-803.17010	95.91077	1041.21997	-666.75977	-84.37967	874.35284	-601.71765	-20.44752	810.43713	-709.34332	-61.57070	721.71539	-708.23737	-36.72312	618.67743	-693.45026	72.91027	586.99542	-722.42395	-32.37890	571.19775	-673.08398	8.71994	524.26514	-773.96716	-37.33081	492.27386	-770.90527	-7.93441	206.66734	-666.55756	-70.85831	159.72868	-624.21881	-81.21883	157.09599	-562.20428	-39.31363	163.34514	-604.96594	16.23767	170.39490	-717.07996	71.75558	218.33527	-676.27551	51.28234	161.79155	-794.62463	54.64249	175.65828	-628.17822	264.82620	886.80408	-587.24017	194.72333	819.52795	-683.92981	259.92145	752.16791	-719.86731	240.33376	643.85632	-687.12042	133.91606	582.81390	-723.92651	235.79831	582.07178	-672.19312	195.06087	537.18445	-768.77924	246.22079	507.45386	-772.06818	221.94467	205.45599	-666.66455	298.46072	160.50197	-629.15692	306.11578	161.55168	-561.83960	260.53116	165.40237	-595.41229	222.34109	173.63475	-711.45929	152.26685	216.72601	-675.90002	174.14066	157.57101	-796.50195	172.17052	184.25215	-528.18164	304.52441	146.67221	-517.91565	-72.47330	142.89523	-876.02740	-78.59952	141.50443	-882.58484	296.16440	144.65800	
411	8.200	-720.72656	92.75545	1853.68640	-719.69641	-70.48102	1571.50952	-709.55988	275.60547	1542.58081	-617.64081	87.69118	1439.34619	-614.83215	-33.76847	1057.98706	-586.24866	194.98508	1072.75098	-802.96497	95.58272	1041.54041	-667.06732	-84.78007	874.22888	-602.67346	-20.31228	809.97491	-710.36816	-62.03743	721.73615	-709.99902	-36.58292	618.26910	-695.51898	72.64485	587.09918	-723.95215	-32.86473	571.30115	-674.71149	8.48973	524.50714	-775.22766	-37.90028	492.11642	-771.18903	-8.07636	206.46797	-666.60919	-70.94038	159.70212	-624.22266	-81.25566	157.09698	-562.26733	-39.32901	163.30760	-605.04834	16.15930	170.49695	-717.33801	71.70510	218.66295	-676.31219	51.21477	161.91971	-794.78876	54.43980	175.59282	-628.36566	264.64130	886.51288	-588.31390	194.40410	818.96307	-684.75330	259.63870	751.83490	-721.24078	240.37296	643.84412	-688.92279	133.85333	582.74237	-725.38489	235.91667	582.10162	-673.69086	195.03532	537.40778	-770.09711	246.40636	507.42294	-772.25085	222.00249	205.39978	-666.70172	298.51395	160.45149	-629.20935	306.15408	161.53467	-561.91541	260.51099	165.44513	-595.51080	222.36844	173.67305	-711.70752	152.33392	216.77008	-675.97040	174.17073	157.68739	-796.60675	172.24576	184.18892	-528.16553	304.52719	146.68892	-517.96417	-72.53120	142.90173	-876.02661	-78.59097	141.51392	-882.58667	296.15845	144.64571	
412	8.220	-720.94214	92.14801	1853.74524	-719.72473	-70.77425	1570.99146	-710.08154	275.39670	1542.76965	-617.73462	87.73730	1439.36096	-614.76147	-33.93527	1057.58508	-586.03046	194.87576	1072.32080	-802.93091	95.27426	1041.85510	-667.36481	-85.11752	874.10449	-603.64136	-20.07901	809.54932	-711.29993	-62.47994	721.73059	-711.49408	-36.51907	617.91211	-697.39691	72.38641	587.18799	-725.28131	-33.32428	571.37476	-676.15619	8.32504	524.70575	-776.27838	-38.44441	491.92792	-771.48151	-8.24448	206.32011	-666.64734	-71.00429	159.67781	-624.22699	-81.28287	157.09189	-562.32159	-39.32843	163.29616	-605.11896	16.10293	170.55290	-717.56036	71.65805	218.95172	-676.35840	51.15204	162.04144	-794.94482	54.23898	175.51476	-628.65070	264.57037	886.31451	-589.35223	194.24698	818.52997	-685.47852	259.49741	751.62634	-722.27667	240.37053	643.79529	-690.16968	133.83812	582.66095	-726.42340	236.07065	582.14374	-674.74573	195.02940	537.60046	-770.98413	246.57454	507.38879	-772.36780	222.03401	205.35837	-666.72113	298.55002	160.43465	-629.24017	306.16791	161.54291	-561.96527	260.49045	165.48030	-595.57507	222.38321	173.69708	-711.89355	152.37849	216.79356	-676.01935	174.18192	157.75165	-796.67236	172.31305	184.14372	-528.15155	304.53244	146.69759	-517.99481	-72.58875	142.91702	-876.02588	-78.58356	141.52191	-882.59198	296.15131	144.62854	
413	8.240	-721.10034	91.53683	1853.83032	-719.70386	-71.12181	1570.53748	-710.50238	275.16266	1542.99341	-617.75427	87.76802	1439.38489	-614.82806	-34.01523	1057.27722	-586.02386	194.84671	1072.03821	-803.05951	95.00121	1042.16113	-667.66260	-85.37224	873.99121	-604.54663	-19.81538	809.19141	-712.08685	-62.85436	721.71198	-712.67102	-36.52657	617.64093	-698.96283	72.15173	587.25323	-726.35107	-33.72216	571.41864	-677.33319	8.22348	524.84619	-777.07257	-38.89463	491.72702	-771.73920	-8.42316	206.23346	-666.67010	-71.04038	159.64592	-624.23022	-81.29452	157.07886	-562.36487	-39.30913	163.31816	-605.17303	16.06717	170.57312	-717.73584	71.59840	219.17233	-676.41913	51.10899	162.15100	-795.08386	54.05555	175.42528	-629.01343	264.59027	886.21857	-590.28943	194.21165	818.21899	-686.08514	259.49057	751.53760	-722.98572	240.34070	643.73535	-690.87201	133.87135	582.58337	-727.07300	236.22621	582.19128	-675.38635	195.03458	537.75104	-771.47174	246.71574	507.35330	-772.42059	222.03383	205.33324	-666.72192	298.56195	160.45406	-629.24384	306.15518	161.56850	-561.98596	260.47256	165.50113	-595.58685	222.38031	173.70305	-712.00702	152.39546	216.80191	-676.03760	174.18259	157.76274	-796.69861	172.35858	184.11565	-528.14410	304.53149	146.68825	-518.00446	-72.63387	142.92935	-876.02692	-78.58037	141.52385	-882.59656	296.14417	144.61191	
414	8.260	-721.20984	90.94968	1853.93677	-719.64435	-71.52248	1570.15820	-710.82642	274.88910	1543.23218	-617.73950	87.75637	1439.39624	-615.01550	-33.99499	1057.06091	-586.19800	194.88057	1071.89294	-803.32190	94.77087	1042.44360	-667.97906	-85.52417	873.89301	-605.32965	-19.58918	808.91974	-712.71069	-63.12264	721.68402	-713.53247	-36.56985	617.46558	-700.13324	71.95940	587.28534	-727.13977	-34.03054	571.43781	-678.20245	8.17226	524.91974	-777.61005	-39.20451	491.53256	-771.93585	-8.58948	206.19638	-666.67877	-71.04570	159.60429	-624.23132	-81.28896	157.05852	-562.39709	-39.27608	163.36829	-605.20911	16.04922	170.57321	-717.86554	71.52722	219.31102	-676.48865	51.09200	162.23631	-795.19751	53.90386	175.32729	-629.41968	264.65930	886.20709	-591.08264	194.24866	818.01227	-686.56177	259.58179	751.54303	-723.41614	240.30911	643.69385	-691.13037	133.94086	582.52325	-727.40997	236.34584	582.22791	-675.69550	195.04597	537.85071	-771.65118	246.82416	507.31882	-772.42358	222.00400	205.32571	-666.70441	298.54855	160.50233	-629.22351	306.11945	161.60193	-561.97766	260.46112	165.50462	-595.54651	222.36096	173.69154	-712.05139	152.39011	216.79807	-676.02606	174.18027	157.73105	-796.69171	172.37265	184.10307	-528.14465	304.51550	146.65973	-517.99689	-72.65820	142.92992	-876.03217	-78.58160	141.51711	-882.59766	296.13794	144.60074	
415	8.280	-721.27374	90.39310	1854.05066	-719.55573	-71.97018	1569.84998	-711.06506	274.58051	1543.47217	-617.72852	87.68089	1439.37463	-615.29938	-33.88194	1056.91284	-586.51080	194.96539	1071.84985	-803.67456	94.58739	1042.67932	-668.32745	-85.56287	873.80823	-605.95996	-19.44702	808.73529	-713.18457	-63.26179	721.63635	-714.11249	-36.61349	617.37848	-700.88519	71.82172	587.27612	-727.66412	-34.23489	571.43811	-678.77283	8.15519	524.92816	-777.92725	-39.36094	491.35764	-772.06482	-8.72049	206.18538	-666.67664	-71.02570	159.56166	-624.22980	-81.26926	157.03391	-562.41791	-39.23838	163.43176	-605.22894	16.04695	170.56528	-717.96082	71.46034	219.36943	-676.55310	51.09693	162.28531	-795.27893	53.79319	175.22728	-629.83484	264.73605	886.24304	-591.71680	194.31923	817.89081	-686.91125	259.72000	751.60114	-723.64172	240.30193	643.69067	-691.10266	134.02634	582.49115	-727.53467	236.40883	582.23901	-675.78522	195.06302	537.89917	-771.64166	246.89909	507.28757	-772.39801	221.95317	205.33548	-666.67059	298.51459	160.56491	-629.19000	306.06885	161.63637	-561.94537	260.45871	165.49289	-595.47296	222.33220	173.66707	-712.04382	152.37305	216.78589	-675.99463	174.17802	157.67633	-796.66272	172.35358	184.10347	-528.15137	304.48242	146.62044	-517.98193	-72.66003	142.91872	-876.04364	-78.58477	141.50227	-882.59534	296.13336	144.59717	
416	8.300	-721.28625	89.85488	1854.15466	-719.45001	-72.45379	1569.59900	-711.23273	274.25867	1543.70667	-617.74811	87.52914	1439.30713	-615.64996	-33.70372	1056.80078	-586.91656	195.09232	1071.86536	-804.06970	94.45486	1042.84753	-668.70496	-85.49698	873.73297	-606.43909	-19.40160	808.62323	-713.54181	-63.27047	721.55304	-714.46161	-36.64201	617.36200	-701.26178	71.73869	587.22333	-727.96991	-34.33655	571.42316	-679.09265	8.15823	524.88562	-778.07788	-39.38098	491.20517	-772.13287	-8.80012	206.17860	-666.66772	-70.99193	159.53339	-624.22473	-81.24180	157.01068	-562.42627	-39.20439	163.49074	-605.23541	16.05975	170.55339	-718.03601	71.41885	219.36099	-676.59705	51.11262	162.29240	-795.32452	53.72497	175.13536	-630.23450	264.79660	886.28760	-592.19971	194.40256	817.83887	-687.15369	259.85895	751.66815	-723.74530	240.33507	643.72534	-690.95856	134.10550	582.49487	-727.54669	236.42209	582.22168	-675.76501	195.08640	537.90649	-771.55438	246.94586	507.26050	-772.36420	221.89410	205.35880	-666.62537	298.46826	160.62558	-629.15643	306.01340	161.66895	-561.89917	260.46481	165.47169	-595.39337	222.30324	173.63623	-712.00897	152.35426	216.77124	-675.95685	174.17467	157.62206	-796.62512	172.30893	184.11327	-528.16046	304.44122	146.58437	-517.97150	-72.64408	142.90540	-876.06079	-78.58675	141.48311	-882.59167	296.13089	144.60033	
